<?xml version="1.0" encoding="UTF-8" standalone="no"?>
<svg
   xmlns:dc="http://purl.org/dc/elements/1.1/"
   xmlns:cc="http://creativecommons.org/ns#"
   xmlns:rdf="http://www.w3.org/1999/02/22-rdf-syntax-ns#"
   xmlns:svg="http://www.w3.org/2000/svg"
   xmlns="http://www.w3.org/2000/svg"
   height="493"
   width="496"
   id="svg6"
   version="1.1"
   viewBox="0 0 496 493">
  <metadata
     id="metadata12">
    <rdf:RDF>
      <cc:Work
         rdf:about="">
        <dc:format>image/svg+xml</dc:format>
        <dc:type
           rdf:resource="http://purl.org/dc/dcmitype/StillImage" />
      </cc:Work>
    </rdf:RDF>
  </metadata>
  <defs
     id="defs10" />
  <g
     transform="translate(-8,-8)"
     id="g4"
     >
    <path
       id="path2" class="faceb"
       d="M 504,256 C 504,119 393,8 256,8 119,8 8,119 8,256 8,379.78 98.69,482.38 217.25,501 V 327.69 h -63 V 256 h 63 v -54.64 c 0,-62.15 37,-96.48 93.67,-96.48 27.14,0 55.52,4.84 55.52,4.84 v 61 h -31.28 c -30.8,0 -40.41,19.12 -40.41,38.73 V 256 h 68.78 l -11,71.69 H 294.75 V 501 C 413.31,482.38 504,379.78 504,256 Z" />
  </g>
</svg>
